<svg xmlns="http://www.w3.org/2000/svg" width="128" height="128" fill="none" viewBox="0 0 27 27">
  <path fill="url(#paint0_linear)" d="M22.0565 4.68842H14.302C12.2217 4.68842 10.5352 6.37491 10.5352 8.4553C10.5352 10.5357 12.2217 12.2222 14.302 12.2222H22.0565C24.1369 12.2222 25.8234 10.5357 25.8234 8.4553C25.8234 6.37491 24.1369 4.68842 22.0565 4.68842Z"/>
  <path fill="url(#paint1_linear)" d="M12.7575 14.6722H4.78069C2.76171 14.6722 1.125 16.3089 1.125 18.3279V18.3288C1.125 20.3478 2.76171 21.9845 4.78069 21.9845H12.7575C14.7765 21.9845 16.4132 20.3478 16.4132 18.3288V18.3279C16.4132 16.3089 14.7765 14.6722 12.7575 14.6722Z"/>
  <path fill="url(#paint2_linear)" d="M24.8075 16.606C25.3971 17.1956 25.691 17.4895 25.8022 17.8293C25.8993 18.1285 25.8993 18.4498 25.8022 18.7489C25.6919 19.0887 25.3971 19.3835 24.8075 19.9722L23.5348 21.2449C22.9453 21.8345 22.6514 22.1284 22.3116 22.2387C22.0124 22.3358 21.6911 22.3358 21.3919 22.2387C21.0521 22.1284 20.7573 21.8336 20.1686 21.2449L18.896 19.9722C18.3064 19.3826 18.0125 19.0887 17.9022 18.7489C17.8051 18.4498 17.8051 18.1285 17.9022 17.8293C18.0125 17.4895 18.3073 17.1947 18.896 16.606L20.1686 15.3333C20.7582 14.7438 21.0521 14.4499 21.3919 14.3395C21.6911 14.2425 22.0124 14.2425 22.3116 14.3395C22.6514 14.4499 22.9462 14.7446 23.5348 15.3333L24.8075 16.606Z"/>
  <path fill="url(#paint3_linear)" d="M4.92973 12.2222C7.01013 12.2222 8.69662 10.5357 8.69662 8.4553C8.69662 6.37491 7.01013 4.68842 4.92973 4.68842C2.84934 4.68842 1.16284 6.37491 1.16284 8.4553C1.16284 10.5357 2.84934 12.2222 4.92973 12.2222Z"/>
  <defs>
    <linearGradient id="paint0_linear" x1="20.5984" x2="8.88119" y1="8.4553" y2="8.4553" gradientUnits="userSpaceOnUse">
      <stop stop-color="#4684FF"/>
      <stop offset="1" stop-color="#B49FFF"/>
    </linearGradient>
    <linearGradient id="paint1_linear" x1="0.309488" x2="15.5597" y1="18.3288" y2="18.3288" gradientUnits="userSpaceOnUse">
      <stop stop-color="#91AEFD"/>
      <stop offset="1" stop-color="#1E7DFF"/>
    </linearGradient>
    <linearGradient id="paint2_linear" x1="28.2179" x2="17.8819" y1="18.2891" y2="18.2891" gradientUnits="userSpaceOnUse">
      <stop stop-color="#91AEFE"/>
      <stop offset="1" stop-color="#1F7DFF"/>
    </linearGradient>
    <linearGradient id="paint3_linear" x1="8.69662" x2="1.16372" y1="8.45442" y2="8.45442" gradientUnits="userSpaceOnUse">
      <stop stop-color="#B49FFF"/>
      <stop offset="1" stop-color="#A086FF"/>
    </linearGradient>
  </defs>
</svg>
